<mxfile host="app.diagrams.net" modified="2023-12-16T21:57:37.700Z" agent="Mozilla/5.0 (Macintosh; Intel Mac OS X 10_15_7) AppleWebKit/605.1.15 (KHTML, like Gecko) Version/15.3 Safari/605.1.15" version="22.1.11" etag="R2pCkPAmpIcM1j-rLr9I" type="github">
  <diagram name="Page-1" id="FycSsTpm4IhA0FWyijEC">
    <mxGraphModel>
      <root>
        <mxCell id="0" />
        <mxCell id="1" parent="0" />
      </root>
    </mxGraphModel>
  </diagram>
</mxfile>
